<?xml version="1.0" standalone="no"?>
<!DOCTYPE svg PUBLIC "-//W3C//DTD SVG 20010904//EN"
 "http://www.w3.org/TR/2001/REC-SVG-20010904/DTD/svg10.dtd">
<svg version="1.0" xmlns="http://www.w3.org/2000/svg"
 width="132.000000pt" height="132.000000pt" viewBox="0 0 132.000000 132.000000"
 preserveAspectRatio="xMidYMid meet">
<metadata>
Created by potrace 1.11, written by Peter Selinger 2001-2013
</metadata>
<g transform="translate(0.000000,132.000000) scale(0.100000,-0.100000)"
fill="#000000" stroke="none">
<path d="M0 660 l0 -660 660 0 660 0 0 660 0 660 -660 0 -660 0 0 -660z m848
279 c77 -13 163 -54 208 -100 31 -32 39 -47 39 -78 0 -55 -41 -110 -106 -145
-49 -26 -52 -26 -27 -5 35 31 68 88 68 118 0 92 -295 197 -537 189 -125 -4
-128 4 -8 21 141 21 244 21 363 0z m-333 -79 c18 -8 18 -9 -6 -9 -37 -1 -135
-36 -170 -61 -63 -45 -78 -132 -35 -204 36 -61 105 -106 236 -152 l65 -24 -55
6 c-184 19 -337 97 -376 191 -51 122 27 225 192 252 65 11 124 12 149 1z m624
-219 c-12 -80 -46 -123 -126 -163 -61 -30 -77 -33 -175 -37 -113 -3 -216 13
-291 47 -38 17 -37 17 145 17 149 0 194 3 242 18 80 25 142 69 179 128 16 27
31 48 33 47 1 -2 -2 -27 -7 -57z"/>
</g>
</svg>
